<svg width="132" height="67" viewBox="0 0 132 67" fill="none" xmlns="http://www.w3.org/2000/svg">
<path d="M8.848 39.872C8.54933 39.872 8.35733 39.68 8.272 39.296C8.272 38.5707 8.784 37.7387 9.808 36.8C10.832 35.8613 11.6427 35.264 12.24 35.008C12.88 34.752 14.9493 34.5813 18.448 34.496L19.344 33.472C32.3147 18.496 41.3173 11.008 46.352 11.008C46.7787 10.9653 47.2693 10.944 47.824 10.944C50.768 10.944 52.24 11.648 52.24 13.056C52.24 13.312 51.9627 13.9947 51.408 15.104L48.528 20.864C47.1627 23.5947 45.84 26.368 44.56 29.184C37.648 44.416 33.6373 54.4 32.528 59.136C32.528 59.4773 32.08 59.648 31.184 59.648C30.3307 59.648 29.2853 59.1573 28.048 58.176C26.8107 57.2373 26.192 56.4053 26.192 55.68C26.192 54.3573 27.2373 51.8613 29.328 48.192C31.4187 44.5227 32.464 42.1333 32.464 41.024C32.464 39.5307 29.5627 38.784 23.76 38.784C22.9067 38.784 21.584 38.8267 19.792 38.912L17.36 42.112C14.3733 46.1227 11.5147 51.0933 8.784 57.024C8.31467 58.0907 6.88533 58.624 4.496 58.624C2.10667 58.624 0.912 58.2827 0.912 57.6C0.912 57.1307 2.23467 55.0827 4.88 51.456C7.568 47.7867 10.7467 43.7333 14.416 39.296C13.776 39.3813 12.9653 39.4667 11.984 39.552C11.0027 39.6373 10.2347 39.7227 9.68 39.808C9.168 39.8507 8.89067 39.872 8.848 39.872ZM35.408 31.616C37.072 29.6107 38.3093 27.584 39.12 25.536C39.9733 23.488 40.4 22.1013 40.4 21.376C40.4 20.6507 40.0373 20.288 39.312 20.288C38.032 20.288 35.92 21.6533 32.976 24.384C30.032 27.072 26.832 30.4427 23.376 34.496L30.352 34.624C32.0587 34.624 33.744 33.6213 35.408 31.616ZM49.5795 57.472C48.4702 57.472 47.3822 57.28 46.3155 56.896C45.2915 56.5547 44.6942 56.384 44.5235 56.384C44.0542 56.384 43.4995 56.8747 42.8595 57.856C42.0062 59.2213 40.4062 59.904 38.0595 59.904C36.6515 59.904 35.9475 59.5627 35.9475 58.88L36.0115 58.624C56.7475 22.784 67.3075 4.45867 67.6915 3.648C68.7155 1.77066 71.1048 0.831997 74.8595 0.831997C76.1395 0.831997 76.7795 1.17333 76.7795 1.856C76.7795 2.24 75.7768 3.81867 73.7715 6.592C66.2622 16.7467 60.4808 25.7707 56.4275 33.664C56.3422 33.8347 56.2995 34.048 56.2995 34.304C56.2995 34.688 56.4702 34.88 56.8115 34.88C57.1528 34.88 57.7288 34.5813 58.5395 33.984C60.8862 32.2773 63.2542 31.424 65.6435 31.424C68.1608 31.424 69.4195 32.9813 69.4195 36.096C69.4195 37.76 68.9075 39.7867 67.8835 42.176C66.8595 44.5227 65.4942 46.848 63.7875 49.152C62.0808 51.456 59.9475 53.4187 57.3875 55.04C54.8275 56.6613 52.2248 57.472 49.5795 57.472ZM51.8835 53.824C54.2302 53.824 56.6408 51.9253 59.1155 48.128C61.5902 44.288 62.8275 41.0453 62.8275 38.4C62.8275 37.248 62.3582 36.672 61.4195 36.672C60.0115 36.672 58.1768 37.6533 55.9155 39.616C53.6968 41.536 51.7768 43.584 50.1555 45.76C48.5342 47.936 47.7235 49.4293 47.7235 50.24C47.7662 50.496 47.8515 50.8373 47.9795 51.264C48.1075 51.648 48.5128 52.1813 49.1955 52.864C49.9208 53.504 50.8168 53.824 51.8835 53.824ZM70.754 56.832C69.7727 56.3627 68.962 55.5307 68.322 54.336C67.7247 53.1413 67.426 51.6693 67.426 49.92C67.426 47.1893 68.3007 44.3307 70.05 41.344C71.842 38.3573 74.338 35.7973 77.538 33.664C80.7807 31.5307 84.194 30.464 87.778 30.464C89.442 30.464 90.8287 30.912 91.938 31.808C93.0473 32.704 93.602 33.6 93.602 34.496C93.602 35.3493 93.474 36.032 93.218 36.544C92.962 37.056 92.834 37.3973 92.834 37.568C92.834 38.08 93.2393 38.336 94.05 38.336C94.8607 38.336 95.4793 38.2293 95.906 38.016C96.3327 37.8027 96.5887 37.696 96.674 37.696C97.0153 37.696 97.186 38.144 97.186 39.04C97.186 39.8933 96.7593 40.9173 95.906 42.112C95.0527 43.264 94.0073 44.1173 92.77 44.672C92.5993 45.0133 92.3647 45.504 92.066 46.144C91.7673 46.7413 91.0633 47.808 89.954 49.344C88.8447 50.8373 87.65 52.1813 86.37 53.376C85.1327 54.528 83.4687 55.5733 81.378 56.512C79.33 57.4933 77.4527 57.984 75.746 57.984C74.0393 57.984 72.3753 57.6 70.754 56.832ZM85.026 45.824C85.026 45.4827 84.834 45.312 84.45 45.312C83.8953 45.312 83.2553 45.44 82.53 45.696C81.8473 45.952 81.4633 46.08 81.378 46.08C81.122 46.08 80.994 45.888 80.994 45.504C80.994 43.84 81.5913 42.4107 82.786 41.216C83.2553 40.704 83.938 40.2773 84.834 39.936C85.73 39.552 86.4127 39.1253 86.882 38.656C87.394 38.144 87.65 37.2907 87.65 36.096C87.65 34.6453 86.882 33.92 85.346 33.92C82.6153 33.92 80.0127 35.8613 77.538 39.744C75.0633 43.584 73.826 47.0187 73.826 50.048C73.826 51.072 74.1673 51.9467 74.85 52.672C75.5753 53.3973 76.4287 53.76 77.41 53.76C79.6287 53.76 81.442 52.8427 82.85 51.008C84.3007 49.1307 85.026 47.4027 85.026 45.824ZM94.1 58.432C94.1 56.7253 94.804 54.08 96.212 50.496C97.62 46.8693 99.1987 43.3493 100.948 39.936C102.697 36.5227 105.065 32.32 108.052 27.328C112.489 19.9467 117.055 12.6293 121.748 5.376C122.473 4.224 123.604 3.28533 125.14 2.56C126.676 1.83466 128.063 1.472 129.3 1.472C130.537 1.472 131.177 1.81333 131.22 2.496C131.22 2.70933 131.092 2.944 130.836 3.2C129.385 4.52266 126.953 7.59466 123.54 12.416C120.127 17.1947 116.5 22.6773 112.66 28.864C108.863 35.0507 105.513 41.5787 102.612 48.448C99.7533 55.3173 98.324 60.928 98.324 65.28C98.324 65.92 98.132 66.24 97.748 66.24C97.0227 66.24 96.404 65.9627 95.892 65.408C95.38 64.896 95.0173 64.2347 94.804 63.424C94.3347 61.8027 94.1 60.1387 94.1 58.432ZM108.108 59.264C107.511 59.264 106.849 58.88 106.124 58.112C105.399 57.3867 105.036 56.4907 105.036 55.424C105.036 54.8267 106.423 51.8187 109.196 46.4C112.012 40.9387 113.463 37.248 113.548 35.328C113.548 34.7307 113.932 34.176 114.7 33.664C116.065 32.8533 118.092 32.448 120.78 32.448C121.292 32.448 121.825 32.5547 122.38 32.768C122.977 32.9387 123.276 33.1947 123.276 33.536C123.276 33.7067 123.212 33.856 123.084 33.984C121.463 36.032 119.095 39.7227 115.98 45.056C112.865 50.3893 110.519 54.72 108.94 58.048C108.727 58.8587 108.449 59.264 108.108 59.264ZM122.124 28.864C120.247 28.864 119.265 28.1173 119.18 26.624V26.56C119.18 25.28 119.799 24.2347 121.036 23.424C122.316 22.6133 123.575 22.208 124.812 22.208C126.689 22.208 127.671 22.9547 127.756 24.448C127.756 25.728 127.137 26.7947 125.9 27.648C124.663 28.4587 123.404 28.864 122.124 28.864Z" fill="white"/>
</svg>
